HIERARCHY
ROOT joint_0
{
	OFFSET 0.000000 0.000000 0.000000
	CHANNELS 6 Xposition Yposition Zposition Zrotation Yrotation Xrotation 
	JOINT joint_1
	{
		OFFSET 7.566162 2.250183 114.799927
		CHANNELS 3 Zrotation Yrotation Xrotation
		JOINT joint_2
		{
			OFFSET -5.201660 -0.414001 104.936035
			CHANNELS 3 Zrotation Yrotation Xrotation
			JOINT joint_3
			{
				OFFSET -6.923584 -0.419739 104.718018
				CHANNELS 3 Zrotation Yrotation Xrotation
				JOINT joint_4
				{
					OFFSET 3.108887 2.881104 149.449951
					CHANNELS 3 Zrotation Yrotation Xrotation
					JOINT joint_5
					{
						OFFSET 19.988770 5.920349 90.786987
						CHANNELS 3 Zrotation Yrotation Xrotation
						End Site
						{
							OFFSET 0.000000 0.000000 0.000000
						}
					}
				}
				JOINT joint_6
				{
					OFFSET 9.283936 -30.015930 84.410034
					CHANNELS 3 Zrotation Yrotation Xrotation
					JOINT joint_7
					{
						OFFSET 47.243164 -155.716736 -23.241089
						CHANNELS 3 Zrotation Yrotation Xrotation
						JOINT joint_8
						{
							OFFSET 31.323730 -15.356873 -268.798950
							CHANNELS 3 Zrotation Yrotation Xrotation
							JOINT joint_9
							{
								OFFSET 28.122314 -2.114624 -262.450012
								CHANNELS 3 Zrotation Yrotation Xrotation
								End Site
								{
									OFFSET 0.000000 0.000000 0.000000
								}
							}
						}
					}
				}
				JOINT joint_10
				{
					OFFSET -5.580566 33.311218 83.498047
					CHANNELS 3 Zrotation Yrotation Xrotation
					JOINT joint_11
					{
						OFFSET -22.773438 160.515381 -27.138062
						CHANNELS 3 Zrotation Yrotation Xrotation
						JOINT joint_12
						{
							OFFSET 27.004395 30.848877 -267.937988
							CHANNELS 3 Zrotation Yrotation Xrotation
							JOINT joint_13
							{
								OFFSET 32.625000 14.824585 -261.518005
								CHANNELS 3 Zrotation Yrotation Xrotation
								End Site
								{
									OFFSET 0.000000 0.000000 0.000000
								}
							}
						}
					}
				}
			}
		}
	}
	JOINT joint_14
	{
		OFFSET 20.623535 -83.447632 -106.174011
		CHANNELS 3 Zrotation Yrotation Xrotation
		JOINT joint_15
		{
			OFFSET 0.661865 -23.563843 -459.915039
			CHANNELS 3 Zrotation Yrotation Xrotation
			JOINT joint_16
			{
				OFFSET -23.461670 -28.727966 -444.760971
				CHANNELS 3 Zrotation Yrotation Xrotation
				JOINT joint_17
				{
					OFFSET 178.992920 54.047363 -80.113001
					CHANNELS 3 Zrotation Yrotation Xrotation
					End Site
					{
						OFFSET 0.000000 0.000000 0.000000
					}
				}
			}
		}
	}
	JOINT joint_18
	{
		OFFSET -19.571533 84.686279 -105.380005
		CHANNELS 3 Zrotation Yrotation Xrotation
		JOINT joint_19
		{
			OFFSET -22.949951 3.639404 -459.933044
			CHANNELS 3 Zrotation Yrotation Xrotation
			JOINT joint_20
			{
				OFFSET -33.690674 4.092651 -445.010971
				CHANNELS 3 Zrotation Yrotation Xrotation
				JOINT joint_21
				{
					OFFSET 187.419678 18.953857 -76.759001
					CHANNELS 3 Zrotation Yrotation Xrotation
					End Site
					{
						OFFSET 0.000000 0.000000 0.000000
					}
				}
			}
		}
	}
}
MOTION
Frames: 14
Frame Time: 0.016667
-2816.664062 936.227234 1065.473999 -12.836229 4.635809 -3.106001 -1.141796 4.641380 5.101904 0.359233 -0.804488 -1.131213 0.958133 0.933393 0.762424 0.865016 -5.936669 -1.562849 0.000000 0.000000 0.000000 7.304938 4.697435 -5.986302 -4.461703 3.809063 -11.677013 3.101323 -43.678564 43.986302 0.000000 0.000000 0.000000 -2.336569 -3.455563 -0.717211 9.308421 0.818841 16.138425 -0.000960 -30.990447 -28.950195 0.000000 0.000000 0.000000 2.984626 -10.292377 -0.551314 -1.737141 34.894308 -6.305129 -5.029702 -14.901549 2.926150 0.000000 0.000000 0.000000 0.034493 -7.609488 15.565011 0.617067 61.828694 -12.182292 -18.649748 7.009631 -8.293183 0.000000 0.000000 0.000000 
-2803.590332 937.638855 1066.703979 -13.122925 3.801610 -2.791313 -1.204155 4.440564 4.731760 0.499583 -0.734160 -1.038407 1.131266 0.867255 0.675742 0.852315 -5.470870 -1.669930 0.000000 0.000000 0.000000 7.128856 4.741796 -5.583948 -4.376846 3.523305 -12.110393 3.139082 -43.079954 43.455629 0.000000 0.000000 0.000000 -2.335461 -3.064789 -0.639155 9.521430 1.236549 16.265641 0.052684 -32.001094 -29.062720 0.000000 0.000000 0.000000 2.761401 -7.968381 -0.885628 -1.273905 33.426066 -6.719891 -4.488321 -14.539285 3.019450 0.000000 0.000000 0.000000 0.966330 -9.353933 16.458969 1.246612 65.696429 -11.402377 -16.175775 5.282376 -7.221744 0.000000 0.000000 0.000000 
-2793.020508 940.218933 1070.401978 -13.552344 2.989122 -2.292395 -1.287601 4.582121 3.852363 0.691185 -0.757325 -0.859172 1.337037 0.904817 0.511044 0.789948 -4.931925 -1.611339 0.000000 0.000000 0.000000 6.952769 4.362494 -5.241197 -4.238564 2.974751 -12.254432 3.253408 -41.866355 42.990153 0.000000 0.000000 0.000000 -2.194818 -2.549220 -0.121407 9.638050 1.573570 15.716179 0.111505 -33.815704 -28.423533 0.000000 0.000000 0.000000 2.456026 -6.024330 -1.525879 -0.905136 32.075243 -6.978489 -4.110663 -13.482562 2.834070 0.000000 0.000000 0.000000 2.073034 -11.118348 16.978334 1.866940 68.265293 -10.768523 -12.961402 3.250646 -5.338780 0.000000 0.000000 0.000000 
-2783.997803 943.673401 1075.906982 -14.129210 2.241259 -1.714151 -1.299765 4.814532 2.704409 0.925492 -0.808813 -0.632628 1.559783 0.982001 0.302042 0.697892 -4.320345 -1.463374 0.000000 0.000000 0.000000 6.786451 3.796123 -4.875093 -4.068863 2.301036 -12.260500 3.394439 -40.244255 42.498904 0.000000 0.000000 0.000000 -1.960132 -1.964314 0.618823 9.660814 1.859542 14.772163 0.153569 -35.898748 -27.428890 0.000000 0.000000 0.000000 2.112824 -4.267933 -2.348575 -0.592880 30.535977 -7.138352 -3.763124 -11.961883 2.488563 0.000000 0.000000 0.000000 3.486991 -12.957716 17.208532 2.593825 69.755715 -10.041864 -9.215681 0.869901 -2.997642 0.000000 0.000000 0.000000 
-2775.083496 947.585571 1081.406982 -14.800070 1.603688 -1.270047 -1.145296 4.930580 1.786192 1.159766 -0.830852 -0.448343 1.750693 1.017403 0.127826 0.626385 -3.770866 -1.373849 0.000000 0.000000 0.000000 6.582684 3.298453 -4.519302 -3.867093 1.709793 -12.194185 3.542224 -38.657573 41.978629 0.000000 0.000000 0.000000 -1.722974 -1.529689 1.174520 9.675360 2.049887 14.054110 0.175051 -37.487332 -26.879225 0.000000 0.000000 0.000000 1.842279 -2.717968 -3.203700 -0.290616 29.024749 -7.065602 -3.345566 -10.318350 2.128518 0.000000 0.000000 0.000000 4.899195 -14.765523 17.388541 3.239069 70.212931 -9.182529 -6.129354 -1.344557 -1.242485 0.000000 0.000000 0.000000 
-2765.879883 951.743896 1086.593994 -15.548047 1.127675 -1.049363 -0.767196 4.818573 1.295228 1.391376 -0.796234 -0.331861 1.902454 0.989088 0.016089 0.599883 -3.341517 -1.424015 0.000000 0.000000 0.000000 6.306345 2.970455 -4.194181 -3.638116 1.297557 -12.050335 3.688387 -37.248915 41.428007 0.000000 0.000000 0.000000 -1.510484 -1.371976 1.348823 9.762015 2.111747 13.960044 0.174159 -38.336143 -27.257436 0.000000 0.000000 0.000000 1.721371 -1.443348 -4.057597 0.026401 27.637831 -6.621373 -2.804982 -8.593376 1.787198 0.000000 0.000000 0.000000 6.101102 -16.498855 17.656116 3.698028 69.567339 -8.300997 -3.997084 -2.899943 -0.440979 0.000000 0.000000 0.000000 
-2756.784668 956.358948 1091.775024 -16.360225 0.761765 -0.959698 -0.261728 4.594362 1.028986 1.620527 -0.739374 -0.253749 2.031997 0.937786 -0.060325 0.593332 -2.978843 -1.532127 0.000000 0.000000 0.000000 6.004473 2.706735 -3.890424 -3.394547 0.969952 -11.835892 3.834702 -35.900604 40.871239 0.000000 0.000000 0.000000 -1.295440 -1.360870 1.343584 9.847481 2.079196 14.085823 0.153939 -38.725234 -28.074087 0.000000 0.000000 0.000000 1.689845 -0.374179 -4.930128 0.314803 26.299729 -5.941423 -2.233260 -6.754318 1.420922 0.000000 0.000000 0.000000 7.112954 -18.086292 17.925791 4.079881 67.861505 -7.500942 -2.335745 -3.954646 -0.110240 0.000000 0.000000 0.000000 
-2747.552246 961.640869 1096.057983 -17.167861 0.406084 -0.930439 0.228256 4.377760 0.866803 1.812098 -0.687485 -0.210551 2.129283 0.883774 -0.104129 0.578630 -2.656984 -1.591253 0.000000 0.000000 0.000000 5.742233 2.445650 -3.611299 -3.152124 0.653560 -11.622186 3.981810 -34.660586 40.357974 0.000000 0.000000 0.000000 -1.122688 -1.310929 1.370439 9.792120 2.025238 13.828562 0.119986 -38.733620 -28.647102 0.000000 0.000000 0.000000 1.646982 0.677575 -5.759998 0.528874 24.977707 -5.315955 -1.739860 -5.051921 1.068528 0.000000 0.000000 0.000000 7.882403 -19.407587 18.128178 4.447033 65.386208 -6.810556 -0.982966 -4.951735 0.151993 0.000000 0.000000 0.000000 
-2738.217041 967.785583 1099.306030 -17.923257 0.039203 -0.963031 0.662460 4.196539 0.810137 1.938476 -0.642559 -0.213651 2.171195 0.832043 -0.104290 0.543056 -2.365229 -1.552469 0.000000 0.000000 0.000000 5.581263 2.161019 -3.354941 -2.936349 0.315516 -11.465488 4.123239 -33.519983 40.008884 0.000000 0.000000 0.000000 -1.030563 -1.171618 1.506551 9.477612 1.938361 12.834263 0.059549 -38.172490 -28.659651 0.000000 0.000000 0.000000 1.553396 1.817763 -6.526387 0.647589 23.537189 -4.806424 -1.324631 -3.548831 0.748247 0.000000 0.000000 0.000000 8.423390 -20.414379 18.214946 4.850816 61.922831 -6.095253 0.260618 -5.848019 0.492045 0.000000 0.000000 0.000000 
-2728.743652 974.597168 1101.655029 -18.681816 -0.328260 -1.057400 1.061818 4.037095 0.857704 2.030484 -0.610136 -0.255436 2.195024 0.780655 -0.070955 0.499591 -2.115021 -1.462798 0.000000 0.000000 0.000000 5.467705 1.876774 -3.123998 -2.719498 -0.011475 -11.307204 4.269363 -32.481913 39.703551 0.000000 0.000000 0.000000 -0.975472 -1.013839 1.634189 9.028199 1.820502 11.506721 -0.013810 -37.209921 -28.409862 0.000000 0.000000 0.000000 1.477093 2.956368 -7.251172 0.692225 22.108898 -4.334210 -0.986706 -2.180650 0.442960 0.000000 0.000000 0.000000 8.722587 -20.998887 18.241321 5.262470 57.431682 -5.410673 1.203980 -6.285222 0.808581 0.000000 0.000000 0.000000 
-2718.782471 981.695129 1102.629028 -19.479722 -0.714942 -1.130859 1.400747 3.895475 0.873290 2.115050 -0.590872 -0.286621 2.232743 0.738252 -0.044637 0.459701 -1.916169 -1.365444 0.000000 0.000000 0.000000 5.292849 1.604576 -2.930848 -2.439596 -0.298970 -11.036678 4.442821 -31.609130 39.128619 0.000000 0.000000 0.000000 -0.887250 -0.813510 1.696196 8.667535 1.783306 10.353776 -0.060125 -36.497256 -28.151820 0.000000 0.000000 0.000000 1.453031 3.961567 -7.949520 0.666678 21.060351 -3.989447 -0.816773 -1.050068 0.155362 0.000000 0.000000 0.000000 8.728778 -21.109297 18.267085 5.549023 52.571573 -5.027323 1.534726 -6.544846 0.986460 0.000000 0.000000 0.000000 
-2708.147705 988.896973 1101.996948 -20.266219 -1.052401 -1.147589 1.676075 3.635850 0.780328 2.166081 -0.527649 -0.275109 2.245005 0.693792 -0.032659 0.425024 -1.776679 -1.266774 0.000000 0.000000 0.000000 4.958160 1.328220 -2.810257 -2.037616 -0.513851 -10.473900 4.665255 -30.947596 38.025965 0.000000 0.000000 0.000000 -0.700501 -0.505289 1.692280 8.455105 1.902433 9.484955 -0.076796 -36.339259 -27.928062 0.000000 0.000000 0.000000 1.419729 4.774680 -8.609059 0.509386 20.424585 -3.856763 -0.887817 -0.243750 -0.114531 0.000000 0.000000 0.000000 8.231949 -20.748480 18.360866 5.473737 47.084615 -5.206660 1.040701 -7.333643 0.976256 0.000000 0.000000 0.000000 
-2697.023682 996.385193 1099.989990 -21.092635 -1.415851 -1.155466 1.904640 3.407701 0.687033 2.210618 -0.482024 -0.266215 2.264901 0.656043 -0.028958 0.395049 -1.690354 -1.167900 0.000000 0.000000 0.000000 4.559552 1.060307 -2.734189 -1.588527 -0.683804 -9.785002 4.899674 -30.436178 36.661120 0.000000 0.000000 0.000000 -0.483109 -0.143434 1.642433 8.322344 2.109076 8.762052 -0.072021 -36.444939 -27.710744 0.000000 0.000000 0.000000 1.419710 5.459493 -9.215324 0.296209 20.163532 -3.894799 -1.103695 0.297357 -0.348644 0.000000 0.000000 0.000000 7.435814 -19.857773 18.424728 5.100412 40.976996 -5.513013 0.331009 -7.842469 0.855788 0.000000 0.000000 0.000000 
-2685.619873 1004.323730 1096.827026 -21.992973 -1.948134 -1.157915 2.093896 3.458100 0.664987 2.285744 -0.541840 -0.287842 2.332384 0.656654 -0.051759 0.377755 -1.642466 -1.107357 0.000000 0.000000 0.000000 4.282321 0.851026 -2.627305 -1.219921 -0.872393 -9.373260 5.092033 -29.976686 35.504153 0.000000 0.000000 0.000000 -0.355852 0.145814 1.559284 8.295506 2.313205 8.270826 -0.022448 -36.600099 -27.662908 0.000000 0.000000 0.000000 1.573539 6.000986 -9.815108 0.194304 20.548599 -4.010601 -1.331316 0.650325 -0.518041 0.000000 0.000000 0.000000 6.867304 -18.798268 18.263336 4.790889 36.181117 -5.353673 0.003868 -7.210397 0.714371 0.000000 0.000000 0.000000 
